# trangulated cube vertices (w/ vertex normals, below)
v -1.000000 -1.000000 -1.000000
v  1.000000 -1.000000 -1.000000
v  1.000000  1.000000 -1.000000
v -1.000000  1.000000 -1.000000
v -1.000000 -1.000000  1.000000
v  1.000000 -1.000000  1.000000
v  1.000000  1.000000  1.000000
v -1.000000  1.000000  1.000000

vn -0.577350 -0.577350 -0.577350
vn  0.577350 -0.577350 -0.577350
vn  0.577350  0.577350 -0.577350
vn -0.577350  0.577350 -0.577350
vn -0.577350 -0.577350  0.577350
vn  0.577350 -0.577350  0.577350
vn  0.577350  0.577350  0.577350
vn -0.577350  0.577350  0.577350

# Back Face						 # 12 triangle faces (vertex_index//normal_index)
f 1//1 4//4 3//3
f 1//1 3//3 2//2
# Front Face
f 5//5 6//6 7//7
f 5//5 7//7 8//8
# Bottom Face
f 1//1 2//2 6//6
f 1//1 6//6 5//5
# Right Face
f 2//2 3//3 7//7
f 2//2 7//7 6//6
# Top Face
f 3//3 4//4 8//8
f 3//3 8//8 7//7
# Left Face
f 4//4 1//1 5//5
f 4//4 5//5 8//8
