v -1.4 0 2.4
v 6.119594e-8 -1.4 2.4
v -1.5 0 2.4
v 6.556708e-8 -1.5 2.4
v 0 -1.4 2.4
v 1.4 6.119594e-8 2.4
v 0 -1.5 2.4
v 1.5 6.556708e-8 2.4
v 0 1.4 2.4
v 1.4 -6.119594e-8 2.4
v 0 1.5 2.4
v 1.5 -6.556708e-8 2.4
v -1.4 0 2.4
v 6.119594e-8 1.4 2.4
v -1.5 0 2.4
v 6.556708e-8 1.5 2.4
v -1.5 0 2.4
v 6.556708e-8 -1.5 2.4
v -2 0 0.9
v 8.742278e-8 -2 0.9
v 0 -1.5 2.4
v 1.5 6.556708e-8 2.4
v 0 -2 0.9
v 2 8.742278e-8 0.9
v 0 1.5 2.4
v 1.5 -6.556708e-8 2.4
v 0 2 0.9
v 2 -8.742278e-8 0.9
v -1.5 0 2.4
v 6.556708e-8 1.5 2.4
v -2 0 0.9
v 8.742278e-8 2 0.9
v -2 0 0.9
v 8.742278e-8 -2 0.9
v -1.5 0 0.15
v 6.556708e-8 -1.5 0.15
v 0 -2 0.9
v 2 8.742278e-8 0.9
v 0 -1.5 0.15
v 1.5 6.556708e-8 0.15
v 0 2 0.9
v 2 -8.742278e-8 0.9
v 0 1.5 0.15
v 1.5 -6.556708e-8 0.15
v -2 0 0.9
v 8.742278e-8 2 0.9
v -1.5 0 0.15
v 6.556708e-8 1.5 0.15
v -1.5 0 0.15
v 6.556708e-8 -1.5 0.15
v 0 0 0
v 0 -1.5 0.15
v 1.5 6.556708e-8 0.15
v 0 0 0
v 0 1.5 0.15
v 1.5 -6.556708e-8 0.15
v 0 0 0
v -1.5 0 0.15
v 6.556708e-8 1.5 0.15
v 0 0 0
v 0 0 0.18
v -1.2 0 0.225
v 5.245367e-8 -1.2 0.225
v 0 0 0.18
v 0 -1.2 0.225
v 1.2 5.245367e-8 0.225
v 0 0 0.18
v 0 1.2 0.225
v 1.2 -5.245367e-8 0.225
v 0 0 0.18
v -1.2 0 0.225
v 5.245367e-8 1.2 0.225
v -1.2 0 0.225
v 5.245367e-8 -1.2 0.225
v -1.9 0 0.9
v 8.305164e-8 -1.9 0.9
v 0 -1.2 0.225
v 1.2 5.245367e-8 0.225
v 0 -1.9 0.9
v 1.9 8.305164e-8 0.9
v 0 1.2 0.225
v 1.2 -5.245367e-8 0.225
v 0 1.9 0.9
v 1.9 -8.305164e-8 0.9
v -1.2 0 0.225
v 5.245367e-8 1.2 0.225
v -1.9 0 0.9
v 8.305164e-8 1.9 0.9
v -1.9 0 0.9
v 8.305164e-8 -1.9 0.9
v -1.5 0 2.16
v 6.556708e-8 -1.5 2.16
v 0 -1.9 0.9
v 1.9 8.305164e-8 0.9
v 0 -1.5 2.16
v 1.5 6.556708e-8 2.16
v 0 1.9 0.9
v 1.9 -8.305164e-8 0.9
v 0 1.5 2.16
v 1.5 -6.556708e-8 2.16
v -1.9 0 0.9
v 8.305164e-8 1.9 0.9
v -1.5 0 2.16
v 6.556708e-8 1.5 2.16
v -1.5 0 2.16
v 6.556708e-8 -1.5 2.16
v -1.2 0 2.34
v 5.245367e-8 -1.2 2.34
v 0 -1.5 2.16
v 1.5 6.556708e-8 2.16
v 0 -1.2 2.34
v 1.2 5.245367e-8 2.34
v 0 1.5 2.16
v 1.5 -6.556708e-8 2.16
v 0 1.2 2.34
v 1.2 -5.245367e-8 2.34
v -1.5 0 2.16
v 6.556708e-8 1.5 2.16
v -1.2 0 2.34
v 5.245367e-8 1.2 2.34
v -1.2 0 2.34
v 5.245367e-8 -1.2 2.34
v -1.4 0 2.4
v 6.119594e-8 -1.4 2.4
v 0 -1.2 2.34
v 1.2 5.245367e-8 2.34
v 0 -1.4 2.4
v 1.4 6.119594e-8 2.4
v 0 1.2 2.34
v 1.2 -5.245367e-8 2.34
v 0 1.4 2.4
v 1.4 -6.119594e-8 2.4
v -1.2 0 2.34
v 5.245367e-8 1.2 2.34
v -1.4 0 2.4
v 6.119594e-8 1.4 2.4

vn 0.9417421 0 -0.3363358
vn -4.116485e-8 0.9417421 -0.3363358
vn -0.9417424 0 0.3363349
vn 4.116486e-8 -0.9417424 0.3363349
vn 0 0.9417421 -0.3363358
vn -0.9417421 -4.116485e-8 -0.3363358
vn 0 -0.9417424 0.3363349
vn 0.9417424 4.116486e-8 0.3363349
vn 0 -0.9417421 -0.3363358
vn -0.9417421 4.116485e-8 -0.3363358
vn 0 0.9417424 0.3363349
vn 0.9417424 -4.116486e-8 0.3363349
vn 0.9417421 0 -0.3363358
vn -4.116485e-8 -0.9417421 -0.3363358
vn -0.9417424 0 0.3363349
vn 4.116486e-8 0.9417424 0.3363349
vn -0.9417418 0 0.3363367
vn 4.116484e-8 -0.9417418 0.3363367
vn -1 0 0
vn 4.371139e-8 -1 0
vn 0 -0.9417418 0.3363367
vn 0.9417418 4.116484e-8 0.3363367
vn 0 -1 0
vn 1 4.371139e-8 0
vn 0 0.9417418 0.3363367
vn 0.9417418 -4.116484e-8 0.3363367
vn 0 1 0
vn 1 -4.371139e-8 0
vn -0.9417418 0 0.3363367
vn 4.116484e-8 0.9417418 0.3363367
vn -1 0 0
vn 4.371139e-8 1 0
vn -1 0 0
vn 4.371139e-8 -1 0
vn -1 0 0
vn 4.371139e-8 -1 0
vn 0 -1 0
vn 1 4.371139e-8 0
vn 0 -1 0
vn 1 4.371139e-8 0
vn 0 1 0
vn 1 -4.371139e-8 0
vn 0 1 0
vn 1 -4.371139e-8 0
vn -1 0 0
vn 4.371139e-8 1 0
vn -1 0 0
vn 4.371139e-8 1 0
vn -1 0 0
vn 4.371139e-8 -1 0
vn 0 0 -1
vn 0 -1 0
vn 1 4.371139e-8 0
vn 0 0 -1
vn 0 1 0
vn 1 -4.371139e-8 0
vn 0 0 -1
vn -1 0 0
vn 4.371139e-8 1 0
vn 0 0 -1
vn 0 0 1
vn 0.287348 0 0.9578263
vn -1.256038e-8 0.287348 0.9578263
vn 0 0 1
vn 0 0.287348 0.9578263
vn -0.287348 -1.256038e-8 0.9578263
vn 0 0 1
vn 0 -0.287348 0.9578263
vn -0.287348 1.256038e-8 0.9578263
vn 0 0 1
vn 0.287348 0 0.9578263
vn -1.256038e-8 -0.287348 0.9578263
vn 0.287348 0 0.9578263
vn -1.256038e-8 0.287348 0.9578263
vn 1 0 0
vn -4.371139e-8 1 0
vn 0 0.287348 0.9578263
vn -0.287348 -1.256038e-8 0.9578263
vn 0 1 0
vn -1 -4.371139e-8 0
vn 0 -0.287348 0.9578263
vn -0.287348 1.256038e-8 0.9578263
vn 0 -1 0
vn -1 4.371139e-8 0
vn 0.287348 0 0.9578263
vn -1.256038e-8 -0.287348 0.9578263
vn 1 0 0
vn -4.371139e-8 -1 0
vn 1 0 0
vn -4.371138e-8 1 0
vn 0.9486832 0 -0.3162279
vn -4.146826e-8 0.9486832 -0.3162279
vn 0 1 0
vn -1 -4.371138e-8 0
vn 0 0.9486832 -0.3162279
vn -0.9486832 -4.146826e-8 -0.3162279
vn 0 -1 0
vn -1 4.371138e-8 0
vn 0 -0.9486832 -0.3162279
vn -0.9486832 4.146826e-8 -0.3162279
vn 1 0 0
vn -4.371138e-8 -1 0
vn 0.9486832 0 -0.3162279
vn -4.146826e-8 -0.9486832 -0.3162279
vn 0.9486834 0 -0.3162276
vn -4.146827e-8 0.9486834 -0.3162276
vn 1 0 0
vn -4.371139e-8 1 0
vn 0 0.9486834 -0.3162276
vn -0.9486834 -4.146827e-8 -0.3162276
vn 0 1 0
vn -1 -4.371139e-8 0
vn 0 -0.9486834 -0.3162276
vn -0.9486834 4.146827e-8 -0.3162276
vn 0 -1 0
vn -1 4.371139e-8 0
vn 0.9486834 0 -0.3162276
vn -4.146827e-8 -0.9486834 -0.3162276
vn 1 0 0
vn -4.371139e-8 -1 0
vn 1 0 0
vn -4.371139e-8 1 0
vn -0.000003973647 0 1
vn 1.736936e-13 -0.000003973647 1
vn 0 1 0
vn -1 -4.371139e-8 0
vn 0 -0.000003973647 1
vn 0.000003973647 1.736936e-13 1
vn 0 -1 0
vn -1 4.371139e-8 0
vn 0 0.000003973647 1
vn 0.000003973647 -1.736936e-13 1
vn 1 0 0
vn -4.371139e-8 -1 0
vn -0.000003973647 0 1
vn 1.736936e-13 0.000003973647 1

vt 0 0.25
vt 0.25 0.25
vt 0 0.22
vt 0.25 0.22
vt 0.25 0.25
vt 0.5 0.25
vt 0.25 0.22
vt 0.5 0.22
vt 0.75 0.25
vt 0.5 0.25
vt 0.75 0.22
vt 0.5 0.22
vt 1 0.25
vt 0.75 0.25
vt 1 0.22
vt 0.75 0.22
vt 0 0.22
vt 0.25 0.22
vt 0 0.08499998
vt 0.25 0.08499998
vt 0.25 0.22
vt 0.5 0.22
vt 0.25 0.08499998
vt 0.5 0.08499998
vt 0.75 0.22
vt 0.5 0.22
vt 0.75 0.08499998
vt 0.5 0.08499998
vt 1 0.22
vt 0.75 0.22
vt 1 0.08499998
vt 0.75 0.08499998
vt 0 0.08499998
vt 0.25 0.08499998
vt 0 0
vt 0.25 0
vt 0.25 0.08499998
vt 0.5 0.08499998
vt 0.25 0
vt 0.5 0
vt 0.75 0.08499998
vt 0.5 0.08499998
vt 0.75 0
vt 0.5 0
vt 1 0.08499998
vt 0.75 0.08499998
vt 1 0
vt 0.75 0
vt 0.125 0.9921875
vt 0.2421875 0.875
vt 0.125 0.875
vt 0.2421875 0.875
vt 0.125 0.7578125
vt 0.125 0.875
vt 0.0078125 0.875
vt 0.125 0.7578125
vt 0.125 0.875
vt 0.125 0.9921875
vt 0.0078125 0.875
vt 0.125 0.875
vt 0.375 0.875
vt 0.375 0.7578125
vt 0.4921875 0.875
vt 0.375 0.875
vt 0.4921875 0.875
vt 0.375 0.9921875
vt 0.375 0.875
vt 0.2578125 0.875
vt 0.375 0.9921875
vt 0.375 0.875
vt 0.375 0.7578125
vt 0.2578125 0.875
vt 0 0.5
vt 0.25 0.5
vt 0 0.411275
vt 0.25 0.411275
vt 0.25 0.5
vt 0.5 0.5
vt 0.25 0.411275
vt 0.5 0.411275
vt 0.75 0.5
vt 0.5 0.5
vt 0.75 0.411275
vt 0.5 0.411275
vt 1 0.5
vt 0.75 0.5
vt 1 0.411275
vt 0.75 0.411275
vt 0 0.411275
vt 0.25 0.411275
vt 0 0.3075
vt 0.25 0.3075
vt 0.25 0.411275
vt 0.5 0.411275
vt 0.25 0.3075
vt 0.5 0.3075
vt 0.75 0.411275
vt 0.5 0.411275
vt 0.75 0.3075
vt 0.5 0.3075
vt 1 0.411275
vt 0.75 0.411275
vt 1 0.3075
vt 0.75 0.3075
vt 0 0.3075
vt 0.25 0.3075
vt 0 0.270075
vt 0.25 0.270075
vt 0.25 0.3075
vt 0.5 0.3075
vt 0.25 0.270075
vt 0.5 0.270075
vt 0.75 0.3075
vt 0.5 0.3075
vt 0.75 0.270075
vt 0.5 0.270075
vt 1 0.3075
vt 0.75 0.3075
vt 1 0.270075
vt 0.75 0.270075
vt 0 0.270075
vt 0.25 0.270075
vt 0 0.25
vt 0.25 0.25
vt 0.25 0.270075
vt 0.5 0.270075
vt 0.25 0.25
vt 0.5 0.25
vt 0.75 0.270075
vt 0.5 0.270075
vt 0.75 0.25
vt 0.5 0.25
vt 1 0.270075
vt 0.75 0.270075
vt 1 0.25
vt 0.75 0.25

f 2/2/2 1/1/1 3/3/3
f 3/3/3 4/4/4 2/2/2
f 6/6/6 5/5/5 7/7/7
f 7/7/7 8/8/8 6/6/6
f 11/11/11 9/9/9 10/10/10
f 10/10/10 12/12/12 11/11/11
f 15/15/15 13/13/13 14/14/14
f 14/14/14 16/16/16 15/15/15
f 18/18/18 17/17/17 19/19/19
f 19/19/19 20/20/20 18/18/18
f 22/22/22 21/21/21 23/23/23
f 23/23/23 24/24/24 22/22/22
f 27/27/27 25/25/25 26/26/26
f 26/26/26 28/28/28 27/27/27
f 31/31/31 29/29/29 30/30/30
f 30/30/30 32/32/32 31/31/31
f 34/34/34 33/33/33 35/35/35
f 35/35/35 36/36/36 34/34/34
f 38/38/38 37/37/37 39/39/39
f 39/39/39 40/40/40 38/38/38
f 43/43/43 41/41/41 42/42/42
f 42/42/42 44/44/44 43/43/43
f 47/47/47 45/45/45 46/46/46
f 46/46/46 48/48/48 47/47/47
f 50/50/50 49/49/49 51/51/51
f 53/53/53 52/52/52 54/54/54
f 55/55/55 56/56/56 57/57/57
f 58/58/58 59/59/59 60/60/60
f 61/61/61 62/62/62 63/63/63
f 64/64/64 65/65/65 66/66/66
f 68/68/68 67/67/67 69/69/69
f 71/71/71 70/70/70 72/72/72
f 74/74/74 73/73/73 75/75/75
f 75/75/75 76/76/76 74/74/74
f 78/78/78 77/77/77 79/79/79
f 79/79/79 80/80/80 78/78/78
f 83/83/83 81/81/81 82/82/82
f 82/82/82 84/84/84 83/83/83
f 87/87/87 85/85/85 86/86/86
f 86/86/86 88/88/88 87/87/87
f 90/90/90 89/89/89 91/91/91
f 91/91/91 92/92/92 90/90/90
f 94/94/94 93/93/93 95/95/95
f 95/95/95 96/96/96 94/94/94
f 99/99/99 97/97/97 98/98/98
f 98/98/98 100/100/100 99/99/99
f 103/103/103 101/101/101 102/102/102
f 102/102/102 104/104/104 103/103/103
f 106/106/106 105/105/105 107/107/107
f 107/107/107 108/108/108 106/106/106
f 110/110/110 109/109/109 111/111/111
f 111/111/111 112/112/112 110/110/110
f 115/115/115 113/113/113 114/114/114
f 114/114/114 116/116/116 115/115/115
f 119/119/119 117/117/117 118/118/118
f 118/118/118 120/120/120 119/119/119
f 122/122/122 121/121/121 123/123/123
f 123/123/123 124/124/124 122/122/122
f 126/126/126 125/125/125 127/127/127
f 127/127/127 128/128/128 126/126/126
f 131/131/131 129/129/129 130/130/130
f 130/130/130 132/132/132 131/131/131
f 135/135/135 133/133/133 134/134/134
f 134/134/134 136/136/136 135/135/135
