# trangulated cube vertices w/ faces & vertex colors

#faee05 rgb01(0.98, 0.933, 0.02)
v -1.000000 -1.000000 -1.000000 0.98 0.933 0.02
#2266ee rgb01(0.133, 0.4, 0.933)
v  1.000000 -1.000000 -1.000000 0.133 0.4 0.933
#ee6600 rgb01(0.933, 0.4, 0)
v  1.000000  1.000000 -1.000000 0.933 0.4 0
#3c7428 rgb01(0.235, 0.455, 0.157)
v -1.000000  1.000000 -1.000000 0.235 0.455 0.157
#3b0866 rgb01(0.231, 0.031, 0.4)
v -1.000000 -1.000000  1.000000 0.231 0.031 0.4
#836953 rgb01(0.514, 0.412, 0.325)
v  1.000000 -1.000000  1.000000 0.514 0.412 0.325
#ff69b4 rgb01(1, 0.412, 0.706)
v  1.000000  1.000000  1.000000 1 0.412 0.706
#e70028 rgb01(0.906, 0, 0.157)
v -1.000000  1.000000  1.000000 0.906 0 0.157

# 12 triangle faces (vertex_index)
# Back Face
f 1 4 3
f 1 3 2
# Front Face
f 5 6 7
f 5 7 8
# Bottom Face
f 1 2 6
f 1 6 5
# Right Face
f 2 3 7
f 2 7 6
# Top Face
f 3 4 8
f 3 8 7
# Left Face
f 4 1 5
f 4 5 8
