v -1.4 0 2.4
v 6.119594e-8 -1.4 2.4
v -1.5 0 2.4
v 6.556708e-8 -1.5 2.4
v 0 -1.4 2.4
v 1.4 6.119594e-8 2.4
v 0 -1.5 2.4
v 1.5 6.556708e-8 2.4
v 0 1.4 2.4
v 1.4 -6.119594e-8 2.4
v 0 1.5 2.4
v 1.5 -6.556708e-8 2.4
v -1.4 0 2.4
v 6.119594e-8 1.4 2.4
v -1.5 0 2.4
v 6.556708e-8 1.5 2.4
v -1.5 0 2.4
v 6.556708e-8 -1.5 2.4
v -2 0 0.9
v 8.742278e-8 -2 0.9
v 0 -1.5 2.4
v 1.5 6.556708e-8 2.4
v 0 -2 0.9
v 2 8.742278e-8 0.9
v 0 1.5 2.4
v 1.5 -6.556708e-8 2.4
v 0 2 0.9
v 2 -8.742278e-8 0.9
v -1.5 0 2.4
v 6.556708e-8 1.5 2.4
v -2 0 0.9
v 8.742278e-8 2 0.9
v -2 0 0.9
v 8.742278e-8 -2 0.9
v -1.5 0 0.15
v 6.556708e-8 -1.5 0.15
v 0 -2 0.9
v 2 8.742278e-8 0.9
v 0 -1.5 0.15
v 1.5 6.556708e-8 0.15
v 0 2 0.9
v 2 -8.742278e-8 0.9
v 0 1.5 0.15
v 1.5 -6.556708e-8 0.15
v -2 0 0.9
v 8.742278e-8 2 0.9
v -1.5 0 0.15
v 6.556708e-8 1.5 0.15
v -1.5 0 0.15
v 6.556708e-8 -1.5 0.15
v 0 0 0
v 0 -1.5 0.15
v 1.5 6.556708e-8 0.15
v 0 0 0
v 0 1.5 0.15
v 1.5 -6.556708e-8 0.15
v 0 0 0
v -1.5 0 0.15
v 6.556708e-8 1.5 0.15
v 0 0 0
v 0 0 0.18
v -1.2 0 0.225
v 5.245367e-8 -1.2 0.225
v 0 0 0.18
v 0 -1.2 0.225
v 1.2 5.245367e-8 0.225
v 0 0 0.18
v 0 1.2 0.225
v 1.2 -5.245367e-8 0.225
v 0 0 0.18
v -1.2 0 0.225
v 5.245367e-8 1.2 0.225
v -1.2 0 0.225
v 5.245367e-8 -1.2 0.225
v -1.9 0 0.9
v 8.305164e-8 -1.9 0.9
v 0 -1.2 0.225
v 1.2 5.245367e-8 0.225
v 0 -1.9 0.9
v 1.9 8.305164e-8 0.9
v 0 1.2 0.225
v 1.2 -5.245367e-8 0.225
v 0 1.9 0.9
v 1.9 -8.305164e-8 0.9
v -1.2 0 0.225
v 5.245367e-8 1.2 0.225
v -1.9 0 0.9
v 8.305164e-8 1.9 0.9
v -1.9 0 0.9
v 8.305164e-8 -1.9 0.9
v -1.5 0 2.16
v 6.556708e-8 -1.5 2.16
v 0 -1.9 0.9
v 1.9 8.305164e-8 0.9
v 0 -1.5 2.16
v 1.5 6.556708e-8 2.16
v 0 1.9 0.9
v 1.9 -8.305164e-8 0.9
v 0 1.5 2.16
v 1.5 -6.556708e-8 2.16
v -1.9 0 0.9
v 8.305164e-8 1.9 0.9
v -1.5 0 2.16
v 6.556708e-8 1.5 2.16
v -1.5 0 2.16
v 6.556708e-8 -1.5 2.16
v -1.2 0 2.34
v 5.245367e-8 -1.2 2.34
v 0 -1.5 2.16
v 1.5 6.556708e-8 2.16
v 0 -1.2 2.34
v 1.2 5.245367e-8 2.34
v 0 1.5 2.16
v 1.5 -6.556708e-8 2.16
v 0 1.2 2.34
v 1.2 -5.245367e-8 2.34
v -1.5 0 2.16
v 6.556708e-8 1.5 2.16
v -1.2 0 2.34
v 5.245367e-8 1.2 2.34
v -1.2 0 2.34
v 5.245367e-8 -1.2 2.34
v -1.4 0 2.4
v 6.119594e-8 -1.4 2.4
v 0 -1.2 2.34
v 1.2 5.245367e-8 2.34
v 0 -1.4 2.4
v 1.4 6.119594e-8 2.4
v 0 1.2 2.34
v 1.2 -5.245367e-8 2.34
v 0 1.4 2.4
v 1.4 -6.119594e-8 2.4
v -1.2 0 2.34
v 5.245367e-8 1.2 2.34
v -1.4 0 2.4
v 6.119594e-8 1.4 2.4

f 2 1 3
f 3 4 2
f 6 5 7
f 7 8 6
f 11 9 10
f 10 12 11
f 15 13 14
f 14 16 15
f 18 17 19
f 19 20 18
f 22 21 23
f 23 24 22
f 27 25 26
f 26 28 27
f 31 29 30
f 30 32 31
f 34 33 35
f 35 36 34
f 38 37 39
f 39 40 38
f 43 41 42
f 42 44 43
f 47 45 46
f 46 48 47
f 50 49 51
f 53 52 54
f 55 56 57
f 58 59 60
f 61 62 63
f 64 65 66
f 68 67 69
f 71 70 72
f 74 73 75
f 75 76 74
f 78 77 79
f 79 80 78
f 83 81 82
f 82 84 83
f 87 85 86
f 86 88 87
f 90 89 91
f 91 92 90
f 94 93 95
f 95 96 94
f 99 97 98
f 98 100 99
f 103 101 102
f 102 104 103
f 106 105 107
f 107 108 106
f 110 109 111
f 111 112 110
f 115 113 114
f 114 116 115
f 119 117 118
f 118 120 119
f 122 121 123
f 123 124 122
f 126 125 127
f 127 128 126
f 131 129 130
f 130 132 131
f 135 133 134
f 134 136 135