v -1.4 3 0
v -1.372 3 -0.28525
v -1.2915 3 -0.5495
v -1.16375 3 -0.7875
v -0.994 3 -0.994
v -0.7875 3 -1.16375
v -0.5495 3 -1.2915
v -0.28525 3 -1.372
v 0 3 -1.4
v -1.383789 3.057422 0
v -1.356113 3.057421 -0.281947
v -1.276545 3.057422 -0.5431372
v -1.150275 3.057422 -0.7783813
v -0.9824902 3.057422 -0.9824903
v -0.7783813 3.057422 -1.150275
v -0.5431372 3.057422 -1.276545
v -0.281947 3.057422 -1.356113
v 0 3.057422 -1.383789
v -1.380469 3.098437 0
v -1.352859 3.098437 -0.2812705
v -1.273482 3.098437 -0.5418339
v -1.147515 3.098437 -0.7765137
v -0.9801328 3.098437 -0.9801328
v -0.7765137 3.098437 -1.147515
v -0.5418339 3.098437 -1.273482
v -0.2812705 3.098437 -1.352859
v 0 3.098437 -1.380469
v -1.387695 3.123047 0
v -1.359941 3.123047 -0.2827429
v -1.280149 3.123047 -0.5446704
v -1.153522 3.123047 -0.7805786
v -0.9852637 3.123047 -0.9852637
v -0.7805786 3.123047 -1.153522
v -0.5446704 3.123047 -1.280149
v -0.2827429 3.123047 -1.359941
v 0 3.123047 -1.387695
v -1.403125 3.13125 0
v -1.375063 3.13125 -0.2858867
v -1.294383 3.13125 -0.5507266
v -1.166348 3.13125 -0.7892578
v -0.9962187 3.13125 -0.9962187
v -0.7892578 3.13125 -1.166348
v -0.5507266 3.13125 -1.294383
v -0.2858867 3.13125 -1.375063
v 0 3.13125 -1.403125
v -1.424414 3.123047 0
v -1.395926 3.123047 -0.2902243
v -1.314022 3.123047 -0.5590825
v -1.184044 3.123047 -0.8012329
v -1.011334 3.123047 -1.011334
v -0.8012329 3.123047 -1.184044
v -0.5590825 3.123047 -1.314022
v -0.2902243 3.123047 -1.395926
v 0 3.123047 -1.424414
v -1.449219 3.098438 0
v -1.420234 3.098437 -0.2952783
v -1.336904 3.098438 -0.5688183
v -1.204663 3.098438 -0.8151855
v -1.028945 3.098438 -1.028945
v -0.8151855 3.098438 -1.204663
v -0.5688183 3.098438 -1.336904
v -0.2952783 3.098438 -1.420234
v 0 3.098438 -1.449219
v -1.475195 3.057422 0
v -1.445691 3.057421 -0.300571
v -1.360868 3.057422 -0.5790142
v -1.226256 3.057422 -0.8297974
v -1.047389 3.057422 -1.047389
v -0.8297974 3.057422 -1.226256
v -0.5790142 3.057422 -1.360868
v -0.300571 3.057422 -1.445691
v 0 3.057422 -1.475195
v -1.5 3 0
v -1.47 3 -0.305625
v -1.38375 3 -0.58875
v -1.246875 3 -0.84375
v -1.065 3 -1.065
v -0.84375 3 -1.246875
v -0.58875 3 -1.38375
v -0.305625 3 -1.47
v 0 3 -1.5
v 0.28525 3 -1.372
v 0.5495 3 -1.2915
v 0.7875 3 -1.16375
v 0.994 3 -0.994
v 1.16375 3 -0.7875
v 1.2915 3 -0.5495
v 1.372 3 -0.28525
v 1.4 3 0
v 0.281947 3.057421 -1.356113
v 0.5431372 3.057422 -1.276545
v 0.7783813 3.057422 -1.150275
v 0.9824903 3.057422 -0.9824902
v 1.150275 3.057422 -0.7783813
v 1.276545 3.057422 -0.5431372
v 1.356113 3.057422 -0.281947
v 1.383789 3.057422 0
v 0.2812705 3.098437 -1.352859
v 0.5418339 3.098437 -1.273482
v 0.7765137 3.098437 -1.147515
v 0.9801328 3.098437 -0.9801328
v 1.147515 3.098437 -0.7765137
v 1.273482 3.098437 -0.5418339
v 1.352859 3.098437 -0.2812705
v 1.380469 3.098437 0
v 0.2827429 3.123047 -1.359941
v 0.5446704 3.123047 -1.280149
v 0.7805786 3.123047 -1.153522
v 0.9852637 3.123047 -0.9852637
v 1.153522 3.123047 -0.7805786
v 1.280149 3.123047 -0.5446704
v 1.359941 3.123047 -0.2827429
v 1.387695 3.123047 0
v 0.2858867 3.13125 -1.375063
v 0.5507266 3.13125 -1.294383
v 0.7892578 3.13125 -1.166348
v 0.9962187 3.13125 -0.9962187
v 1.166348 3.13125 -0.7892578
v 1.294383 3.13125 -0.5507266
v 1.375063 3.13125 -0.2858867
v 1.403125 3.13125 0
v 0.2902243 3.123047 -1.395926
v 0.5590825 3.123047 -1.314022
v 0.8012329 3.123047 -1.184044
v 1.011334 3.123047 -1.011334
v 1.184044 3.123047 -0.8012329
v 1.314022 3.123047 -0.5590825
v 1.395926 3.123047 -0.2902243
v 1.424414 3.123047 0
v 0.2952783 3.098437 -1.420234
v 0.5688183 3.098438 -1.336904
v 0.8151855 3.098438 -1.204663
v 1.028945 3.098438 -1.028945
v 1.204663 3.098438 -0.8151855
v 1.336904 3.098438 -0.5688183
v 1.420234 3.098438 -0.2952783
v 1.449219 3.098438 0
v 0.300571 3.057421 -1.445691
v 0.5790142 3.057422 -1.360868
v 0.8297974 3.057422 -1.226256
v 1.047389 3.057422 -1.047389
v 1.226256 3.057422 -0.8297974
v 1.360868 3.057422 -0.5790142
v 1.445691 3.057422 -0.300571
v 1.475195 3.057422 0
v 0.305625 3 -1.47
v 0.58875 3 -1.38375
v 0.84375 3 -1.246875
v 1.065 3 -1.065
v 1.246875 3 -0.84375
v 1.38375 3 -0.58875
v 1.47 3 -0.305625
v 1.5 3 0
v 0 3 1.4
v 0.28525 3 1.372
v 0.5495 3 1.2915
v 0.7875 3 1.16375
v 0.994 3 0.994
v 1.16375 3 0.7875
v 1.2915 3 0.5495
v 1.372 3 0.28525
v 0 3.057422 1.383789
v 0.281947 3.057421 1.356113
v 0.5431372 3.057422 1.276545
v 0.7783813 3.057422 1.150275
v 0.9824903 3.057422 0.9824902
v 1.150275 3.057422 0.7783813
v 1.276545 3.057422 0.5431372
v 1.356113 3.057422 0.281947
v 0 3.098437 1.380469
v 0.2812705 3.098437 1.352859
v 0.5418339 3.098437 1.273482
v 0.7765137 3.098437 1.147515
v 0.9801328 3.098437 0.9801328
v 1.147515 3.098437 0.7765137
v 1.273482 3.098437 0.5418339
v 1.352859 3.098437 0.2812705
v 0 3.123047 1.387695
v 0.2827429 3.123047 1.359941
v 0.5446704 3.123047 1.280149
v 0.7805786 3.123047 1.153522
v 0.9852637 3.123047 0.9852637
v 1.153522 3.123047 0.7805786
v 1.280149 3.123047 0.5446704
v 1.359941 3.123047 0.2827429
v 0 3.13125 1.403125
v 0.2858867 3.13125 1.375063
v 0.5507266 3.13125 1.294383
v 0.7892578 3.13125 1.166348
v 0.9962187 3.13125 0.9962187
v 1.166348 3.13125 0.7892578
v 1.294383 3.13125 0.5507266
v 1.375063 3.13125 0.2858867
v 0 3.123047 1.424414
v 0.2902243 3.123047 1.395926
v 0.5590825 3.123047 1.314022
v 0.8012329 3.123047 1.184044
v 1.011334 3.123047 1.011334
v 1.184044 3.123047 0.8012329
v 1.314022 3.123047 0.5590825
v 1.395926 3.123047 0.2902243
v 0 3.098438 1.449219
v 0.2952783 3.098437 1.420234
v 0.5688183 3.098438 1.336904
v 0.8151855 3.098438 1.204663
v 1.028945 3.098438 1.028945
v 1.204663 3.098438 0.8151855
v 1.336904 3.098438 0.5688183
v 1.420234 3.098438 0.2952783
v 0 3.057422 1.475195
v 0.300571 3.057421 1.445691
v 0.5790142 3.057422 1.360868
v 0.8297974 3.057422 1.226256
v 1.047389 3.057422 1.047389
v 1.226256 3.057422 0.8297974
v 1.360868 3.057422 0.5790142
v 1.445691 3.057422 0.300571
v 0 3 1.5
v 0.305625 3 1.47
v 0.58875 3 1.38375
v 0.84375 3 1.246875
v 1.065 3 1.065
v 1.246875 3 0.84375
v 1.38375 3 0.58875
v 1.47 3 0.305625
v -1.372 3 0.28525
v -1.2915 3 0.5495
v -1.16375 3 0.7875
v -0.994 3 0.994
v -0.7875 3 1.16375
v -0.5495 3 1.2915
v -0.28525 3 1.372
v -1.356113 3.057421 0.281947
v -1.276545 3.057422 0.5431372
v -1.150275 3.057422 0.7783813
v -0.9824902 3.057422 0.9824903
v -0.7783813 3.057422 1.150275
v -0.5431372 3.057422 1.276545
v -0.281947 3.057422 1.356113
v -1.352859 3.098437 0.2812705
v -1.273482 3.098437 0.5418339
v -1.147515 3.098437 0.7765137
v -0.9801328 3.098437 0.9801328
v -0.7765137 3.098437 1.147515
v -0.5418339 3.098437 1.273482
v -0.2812705 3.098437 1.352859
v -1.359941 3.123047 0.2827429
v -1.280149 3.123047 0.5446704
v -1.153522 3.123047 0.7805786
v -0.9852637 3.123047 0.9852637
v -0.7805786 3.123047 1.153522
v -0.5446704 3.123047 1.280149
v -0.2827429 3.123047 1.359941
v -1.375063 3.13125 0.2858867
v -1.294383 3.13125 0.5507266
v -1.166348 3.13125 0.7892578
v -0.9962187 3.13125 0.9962187
v -0.7892578 3.13125 1.166348
v -0.5507266 3.13125 1.294383
v -0.2858867 3.13125 1.375063
v -1.395926 3.123047 0.2902243
v -1.314022 3.123047 0.5590825
v -1.184044 3.123047 0.8012329
v -1.011334 3.123047 1.011334
v -0.8012329 3.123047 1.184044
v -0.5590825 3.123047 1.314022
v -0.2902243 3.123047 1.395926
v -1.420234 3.098437 0.2952783
v -1.336904 3.098438 0.5688183
v -1.204663 3.098438 0.8151855
v -1.028945 3.098438 1.028945
v -0.8151855 3.098438 1.204663
v -0.5688183 3.098438 1.336904
v -0.2952783 3.098438 1.420234
v -1.445691 3.057421 0.300571
v -1.360868 3.057422 0.5790142
v -1.226256 3.057422 0.8297974
v -1.047389 3.057422 1.047389
v -0.8297974 3.057422 1.226256
v -0.5790142 3.057422 1.360868
v -0.300571 3.057422 1.445691
v -1.47 3 0.305625
v -1.38375 3 0.58875
v -1.246875 3 0.84375
v -1.065 3 1.065
v -0.84375 3 1.246875
v -0.58875 3 1.38375
v -0.305625 3 1.47
v -1.593262 2.737695 0
v -1.561396 2.737695 -0.324627
v -1.469784 2.737695 -0.6253552
v -1.324399 2.737695 -0.8962097
v -1.131216 2.737695 -1.131216
v -0.8962097 2.737695 -1.324399
v -0.6253552 2.737695 -1.469784
v -0.324627 2.737695 -1.561396
v 0 2.737695 -1.593262
v -1.683594 2.476562 0
v -1.649922 2.476562 -0.3430322
v -1.553115 2.476562 -0.6608105
v -1.399487 2.476562 -0.9470215
v -1.195352 2.476562 -1.195352
v -0.9470215 2.476562 -1.399487
v -0.6608105 2.476562 -1.553115
v -0.3430322 2.476562 -1.649922
v 0 2.476562 -1.683594
v -1.768066 2.217773 0
v -1.732705 2.217773 -0.3602435
v -1.631041 2.217773 -0.693966
v -1.469705 2.217773 -0.9945374
v -1.255327 2.217773 -1.255327
v -0.9945374 2.217773 -1.469705
v -0.693966 2.217773 -1.631041
v -0.3602435 2.217773 -1.732705
v 0 2.217773 -1.768066
v -1.84375 1.9625 0
v -1.806875 1.9625 -0.3756641
v -1.700859 1.9625 -0.7236719
v -1.532617 1.9625 -1.037109
v -1.309063 1.9625 -1.309063
v -1.037109 1.9625 -1.532617
v -0.7236719 1.9625 -1.700859
v -0.3756641 1.9625 -1.806875
v 0 1.9625 -1.84375
v -1.907715 1.711914 0
v -1.86956 1.711914 -0.3886969
v -1.759867 1.711914 -0.7487781
v -1.585788 1.711914 -1.07309
v -1.354478 1.711914 -1.354478
v -1.07309 1.711914 -1.585788
v -0.7487781 1.711914 -1.759867
v -0.3886969 1.711914 -1.86956
v 0 1.711914 -1.907715
v -1.957031 1.467188 0
v -1.917891 1.467188 -0.3987451
v -1.805361 1.467188 -0.7681348
v -1.626782 1.467188 -1.10083
v -1.389492 1.467188 -1.389492
v -1.10083 1.467188 -1.626782
v -0.7681348 1.467188 -1.805361
v -0.3987451 1.467188 -1.917891
v 0 1.467188 -1.957031
v -1.98877 1.229492 0
v -1.948994 1.229492 -0.4052117
v -1.83464 1.229492 -0.7805921
v -1.653165 1.229492 -1.118683
v -1.412026 1.229492 -1.412026
v -1.118683 1.229492 -1.653165
v -0.7805921 1.229492 -1.83464
v -0.4052117 1.229492 -1.948994
v 0 1.229492 -1.98877
v -2 1 0
v -1.96 1 -0.4075
v -1.845 1 -0.785
v -1.6625 1 -1.125
v -1.42 1 -1.42
v -1.125 1 -1.6625
v -0.785 1 -1.845
v -0.4075 1 -1.96
v 0 1 -2
v 0.324627 2.737695 -1.561396
v 0.6253552 2.737695 -1.469784
v 0.8962097 2.737695 -1.324399
v 1.131216 2.737695 -1.131216
v 1.324399 2.737695 -0.8962097
v 1.469784 2.737695 -0.6253552
v 1.561396 2.737695 -0.324627
v 1.593262 2.737695 0
v 0.3430322 2.476562 -1.649922
v 0.6608105 2.476562 -1.553115
v 0.9470215 2.476562 -1.399487
v 1.195352 2.476562 -1.195352
v 1.399487 2.476562 -0.9470215
v 1.553115 2.476562 -0.6608105
v 1.649922 2.476562 -0.3430322
v 1.683594 2.476562 0
v 0.3602435 2.217773 -1.732705
v 0.693966 2.217773 -1.631041
v 0.9945374 2.217773 -1.469705
v 1.255327 2.217773 -1.255327
v 1.469705 2.217773 -0.9945374
v 1.631041 2.217773 -0.693966
v 1.732705 2.217773 -0.3602435
v 1.768066 2.217773 0
v 0.3756641 1.9625 -1.806875
v 0.7236719 1.9625 -1.700859
v 1.037109 1.9625 -1.532617
v 1.309063 1.9625 -1.309063
v 1.532617 1.9625 -1.037109
v 1.700859 1.9625 -0.7236719
v 1.806875 1.9625 -0.3756641
v 1.84375 1.9625 0
v 0.3886969 1.711914 -1.86956
v 0.7487781 1.711914 -1.759867
v 1.07309 1.711914 -1.585788
v 1.354478 1.711914 -1.354478
v 1.585788 1.711914 -1.07309
v 1.759867 1.711914 -0.7487781
v 1.86956 1.711914 -0.3886969
v 1.907715 1.711914 0
v 0.3987451 1.467188 -1.917891
v 0.7681348 1.467188 -1.805361
v 1.10083 1.467188 -1.626782
v 1.389492 1.467188 -1.389492
v 1.626782 1.467188 -1.10083
v 1.805361 1.467188 -0.7681348
v 1.917891 1.467188 -0.3987451
v 1.957031 1.467188 0
v 0.4052117 1.229492 -1.948994
v 0.7805921 1.229492 -1.83464
v 1.118683 1.229492 -1.653165
v 1.412026 1.229492 -1.412026
v 1.653165 1.229492 -1.118683
v 1.83464 1.229492 -0.7805921
v 1.948994 1.229492 -0.4052117
v 1.98877 1.229492 0
v 0.4075 1 -1.96
v 0.785 1 -1.845
v 1.125 1 -1.6625
v 1.42 1 -1.42
v 1.6625 1 -1.125
v 1.845 1 -0.785
v 1.96 1 -0.4075
v 2 1 0
v 0 2.737695 1.593262
v 0.324627 2.737695 1.561396
v 0.6253552 2.737695 1.469784
v 0.8962097 2.737695 1.324399
v 1.131216 2.737695 1.131216
v 1.324399 2.737695 0.8962097
v 1.469784 2.737695 0.6253552
v 1.561396 2.737695 0.324627
v 0 2.476562 1.683594
v 0.3430322 2.476562 1.649922
v 0.6608105 2.476562 1.553115
v 0.9470215 2.476562 1.399487
v 1.195352 2.476562 1.195352
v 1.399487 2.476562 0.9470215
v 1.553115 2.476562 0.6608105
v 1.649922 2.476562 0.3430322
v 0 2.217773 1.768066
v 0.3602435 2.217773 1.732705
v 0.693966 2.217773 1.631041
v 0.9945374 2.217773 1.469705
v 1.255327 2.217773 1.255327
v 1.469705 2.217773 0.9945374
v 1.631041 2.217773 0.693966
v 1.732705 2.217773 0.3602435
v 0 1.9625 1.84375
v 0.3756641 1.9625 1.806875
v 0.7236719 1.9625 1.700859
v 1.037109 1.9625 1.532617
v 1.309063 1.9625 1.309063
v 1.532617 1.9625 1.037109
v 1.700859 1.9625 0.7236719
v 1.806875 1.9625 0.3756641
v 0 1.711914 1.907715
v 0.3886969 1.711914 1.86956
v 0.7487781 1.711914 1.759867
v 1.07309 1.711914 1.585788
v 1.354478 1.711914 1.354478
v 1.585788 1.711914 1.07309
v 1.759867 1.711914 0.7487781
v 1.86956 1.711914 0.3886969
v 0 1.467188 1.957031
v 0.3987451 1.467188 1.917891
v 0.7681348 1.467188 1.805361
v 1.10083 1.467188 1.626782
v 1.389492 1.467188 1.389492
v 1.626782 1.467188 1.10083
v 1.805361 1.467188 0.7681348
v 1.917891 1.467188 0.3987451
v 0 1.229492 1.98877
v 0.4052117 1.229492 1.948994
v 0.7805921 1.229492 1.83464
v 1.118683 1.229492 1.653165
v 1.412026 1.229492 1.412026
v 1.653165 1.229492 1.118683
v 1.83464 1.229492 0.7805921
v 1.948994 1.229492 0.4052117
v 0 1 2
v 0.4075 1 1.96
v 0.785 1 1.845
v 1.125 1 1.6625
v 1.42 1 1.42
v 1.6625 1 1.125
v 1.845 1 0.785
v 1.96 1 0.4075
v -1.561396 2.737695 0.324627
v -1.469784 2.737695 0.6253552
v -1.324399 2.737695 0.8962097
v -1.131216 2.737695 1.131216
v -0.8962097 2.737695 1.324399
v -0.6253552 2.737695 1.469784
v -0.324627 2.737695 1.561396
v -1.649922 2.476562 0.3430322
v -1.553115 2.476562 0.6608105
v -1.399487 2.476562 0.9470215
v -1.195352 2.476562 1.195352
v -0.9470215 2.476562 1.399487
v -0.6608105 2.476562 1.553115
v -0.3430322 2.476562 1.649922
v -1.732705 2.217773 0.3602435
v -1.631041 2.217773 0.693966
v -1.469705 2.217773 0.9945374
v -1.255327 2.217773 1.255327
v -0.9945374 2.217773 1.469705
v -0.693966 2.217773 1.631041
v -0.3602435 2.217773 1.732705
v -1.806875 1.9625 0.3756641
v -1.700859 1.9625 0.7236719
v -1.532617 1.9625 1.037109
v -1.309063 1.9625 1.309063
v -1.037109 1.9625 1.532617
v -0.7236719 1.9625 1.700859
v -0.3756641 1.9625 1.806875
v -1.86956 1.711914 0.3886969
v -1.759867 1.711914 0.7487781
v -1.585788 1.711914 1.07309
v -1.354478 1.711914 1.354478
v -1.07309 1.711914 1.585788
v -0.7487781 1.711914 1.759867
v -0.3886969 1.711914 1.86956
v -1.917891 1.467188 0.3987451
v -1.805361 1.467188 0.7681348
v -1.626782 1.467188 1.10083
v -1.389492 1.467188 1.389492
v -1.10083 1.467188 1.626782
v -0.7681348 1.467188 1.805361
v -0.3987451 1.467188 1.917891
v -1.948994 1.229492 0.4052117
v -1.83464 1.229492 0.7805921
v -1.653165 1.229492 1.118683
v -1.412026 1.229492 1.412026
v -1.118683 1.229492 1.653165
v -0.7805921 1.229492 1.83464
v -0.4052117 1.229492 1.948994
v -1.96 1 0.4075
v -1.845 1 0.785
v -1.6625 1 1.125
v -1.42 1 1.42
v -1.125 1 1.6625
v -0.785 1 1.845
v -0.4075 1 1.96
v -1.978516 0.7888673 0
v -1.938945 0.7888674 -0.4031225
v -1.825181 0.7888673 -0.7765674
v -1.644641 0.7888673 -1.112915
v -1.404746 0.7888673 -1.404746
v -1.112915 0.7888673 -1.644641
v -0.7765674 0.7888673 -1.825181
v -0.4031225 0.7888673 -1.938945
v 0 0.7888673 -1.978516
v -1.921875 0.6046876 0
v -1.883437 0.6046876 -0.3915821
v -1.77293 0.6046876 -0.7543359
v -1.597559 0.6046876 -1.081055
v -1.364531 0.6046876 -1.364531
v -1.081055 0.6046876 -1.597559
v -0.7543359 0.6046876 -1.77293
v -0.3915821 0.6046876 -1.883437
v 0 0.6046876 -1.921875
v -1.841797 0.4462891 0
v -1.804961 0.4462892 -0.3752661
v -1.699058 0.4462891 -0.7229052
v -1.530994 0.4462891 -1.036011
v -1.307676 0.4462891 -1.307676
v -1.036011 0.4462891 -1.530994
v -0.7229052 0.4462891 -1.699058
v -0.3752661 0.4462891 -1.804961
v 0 0.4462891 -1.841797
v -1.75 0.3125 0
v -1.715 0.3125001 -0.3565625
v -1.614375 0.3125 -0.686875
v -1.454687 0.3125 -0.984375
v -1.2425 0.3125 -1.2425
v -0.984375 0.3125 -1.454687
v -0.686875 0.3125 -1.614375
v -0.3565625 0.3125 -1.715
v 0 0.3125 -1.75
v -1.658203 0.2021484 0
v -1.625039 0.2021485 -0.3378589
v -1.529692 0.2021484 -0.6508448
v -1.378381 0.2021484 -0.9327393
v -1.177324 0.2021484 -1.177324
v -0.9327393 0.2021484 -1.378381
v -0.6508448 0.2021484 -1.529692
v -0.3378589 0.2021484 -1.625039
v 0 0.2021484 -1.658203
v -1.578125 0.1140625 0
v -1.546562 0.1140625 -0.3215429
v -1.45582 0.1140625 -0.6194141
v -1.311816 0.1140625 -0.8876953
v -1.120469 0.1140625 -1.120469
v -0.8876953 0.1140625 -1.311816
v -0.6194141 0.1140625 -1.45582
v -0.3215429 0.1140625 -1.546562
v 0 0.1140625 -1.578125
v -1.521484 0.04707031 0
v -1.491055 0.04707031 -0.3100024
v -1.403569 0.04707031 -0.5971826
v -1.264734 0.04707031 -0.855835
v -1.080254 0.04707032 -1.080254
v -0.855835 0.04707031 -1.264734
v -0.5971826 0.04707031 -1.403569
v -0.3100024 0.04707031 -1.491055
v 0 0.04707031 -1.521484
v -1.5 0 0
v -1.47 -1.490116e-8 -0.305625
v -1.38375 0 -0.58875
v -1.246875 0 -0.84375
v -1.065 1.490116e-8 -1.065
v -0.84375 0 -1.246875
v -0.58875 0 -1.38375
v -0.305625 0 -1.47
v 0 0 -1.5
v 0.4031225 0.7888674 -1.938945
v 0.7765674 0.7888673 -1.825181
v 1.112915 0.7888673 -1.644641
v 1.404746 0.7888673 -1.404746
v 1.644641 0.7888673 -1.112915
v 1.825181 0.7888673 -0.7765674
v 1.938945 0.7888673 -0.4031225
v 1.978516 0.7888673 0
v 0.3915821 0.6046876 -1.883437
v 0.7543359 0.6046876 -1.77293
v 1.081055 0.6046876 -1.597559
v 1.364531 0.6046876 -1.364531
v 1.597559 0.6046876 -1.081055
v 1.77293 0.6046876 -0.7543359
v 1.883437 0.6046876 -0.3915821
v 1.921875 0.6046876 0
v 0.3752661 0.4462892 -1.804961
v 0.7229052 0.4462891 -1.699058
v 1.036011 0.4462891 -1.530994
v 1.307676 0.4462891 -1.307676
v 1.530994 0.4462891 -1.036011
v 1.699058 0.4462891 -0.7229052
v 1.804961 0.4462891 -0.3752661
v 1.841797 0.4462891 0
v 0.3565625 0.3125001 -1.715
v 0.686875 0.3125 -1.614375
v 0.984375 0.3125 -1.454687
v 1.2425 0.3125 -1.2425
v 1.454687 0.3125 -0.984375
v 1.614375 0.3125 -0.686875
v 1.715 0.3125 -0.3565625
v 1.75 0.3125 0
v 0.3378589 0.2021485 -1.625039
v 0.6508448 0.2021484 -1.529692
v 0.9327393 0.2021484 -1.378381
v 1.177324 0.2021484 -1.177324
v 1.378381 0.2021484 -0.9327393
v 1.529692 0.2021484 -0.6508448
v 1.625039 0.2021484 -0.3378589
v 1.658203 0.2021484 0
v 0.3215429 0.1140625 -1.546562
v 0.6194141 0.1140625 -1.45582
v 0.8876953 0.1140625 -1.311816
v 1.120469 0.1140625 -1.120469
v 1.311816 0.1140625 -0.8876953
v 1.45582 0.1140625 -0.6194141
v 1.546562 0.1140625 -0.3215429
v 1.578125 0.1140625 0
v 0.3100024 0.04707031 -1.491055
v 0.5971826 0.04707031 -1.403569
v 0.855835 0.04707031 -1.264734
v 1.080254 0.04707032 -1.080254
v 1.264734 0.04707031 -0.855835
v 1.403569 0.04707031 -0.5971826
v 1.491055 0.04707031 -0.3100024
v 1.521484 0.04707031 0
v 0.305625 -1.490116e-8 -1.47
v 0.58875 0 -1.38375
v 0.84375 0 -1.246875
v 1.065 1.490116e-8 -1.065
v 1.246875 0 -0.84375
v 1.38375 0 -0.58875
v 1.47 0 -0.305625
v 1.5 0 0
v 0 0.7888673 1.978516
v 0.4031225 0.7888674 1.938945
v 0.7765674 0.7888673 1.825181
v 1.112915 0.7888673 1.644641
v 1.404746 0.7888673 1.404746
v 1.644641 0.7888673 1.112915
v 1.825181 0.7888673 0.7765674
v 1.938945 0.7888673 0.4031225
v 0 0.6046876 1.921875
v 0.3915821 0.6046876 1.883437
v 0.7543359 0.6046876 1.77293
v 1.081055 0.6046876 1.597559
v 1.364531 0.6046876 1.364531
v 1.597559 0.6046876 1.081055
v 1.77293 0.6046876 0.7543359
v 1.883437 0.6046876 0.3915821
v 0 0.4462891 1.841797
v 0.3752661 0.4462892 1.804961
v 0.7229052 0.4462891 1.699058
v 1.036011 0.4462891 1.530994
v 1.307676 0.4462891 1.307676
v 1.530994 0.4462891 1.036011
v 1.699058 0.4462891 0.7229052
v 1.804961 0.4462891 0.3752661
v 0 0.3125 1.75
v 0.3565625 0.3125001 1.715
v 0.686875 0.3125 1.614375
v 0.984375 0.3125 1.454687
v 1.2425 0.3125 1.2425
v 1.454687 0.3125 0.984375
v 1.614375 0.3125 0.686875
v 1.715 0.3125 0.3565625
v 0 0.2021484 1.658203
v 0.3378589 0.2021485 1.625039
v 0.6508448 0.2021484 1.529692
v 0.9327393 0.2021484 1.378381
v 1.177324 0.2021484 1.177324
v 1.378381 0.2021484 0.9327393
v 1.529692 0.2021484 0.6508448
v 1.625039 0.2021484 0.3378589
v 0 0.1140625 1.578125
v 0.3215429 0.1140625 1.546562
v 0.6194141 0.1140625 1.45582
v 0.8876953 0.1140625 1.311816
v 1.120469 0.1140625 1.120469
v 1.311816 0.1140625 0.8876953
v 1.45582 0.1140625 0.6194141
v 1.546562 0.1140625 0.3215429
v 0 0.04707031 1.521484
v 0.3100024 0.04707031 1.491055
v 0.5971826 0.04707031 1.403569
v 0.855835 0.04707031 1.264734
v 1.080254 0.04707032 1.080254
v 1.264734 0.04707031 0.855835
v 1.403569 0.04707031 0.5971826
v 1.491055 0.04707031 0.3100024
v 0 0 1.5
v 0.305625 -1.490116e-8 1.47
v 0.58875 0 1.38375
v 0.84375 0 1.246875
v 1.065 1.490116e-8 1.065
v 1.246875 0 0.84375
v 1.38375 0 0.58875
v 1.47 0 0.305625
v -1.938945 0.7888674 0.4031225
v -1.825181 0.7888673 0.7765674
v -1.644641 0.7888673 1.112915
v -1.404746 0.7888673 1.404746
v -1.112915 0.7888673 1.644641
v -0.7765674 0.7888673 1.825181
v -0.4031225 0.7888673 1.938945
v -1.883437 0.6046876 0.3915821
v -1.77293 0.6046876 0.7543359
v -1.597559 0.6046876 1.081055
v -1.364531 0.6046876 1.364531
v -1.081055 0.6046876 1.597559
v -0.7543359 0.6046876 1.77293
v -0.3915821 0.6046876 1.883437
v -1.804961 0.4462892 0.3752661
v -1.699058 0.4462891 0.7229052
v -1.530994 0.4462891 1.036011
v -1.307676 0.4462891 1.307676
v -1.036011 0.4462891 1.530994
v -0.7229052 0.4462891 1.699058
v -0.3752661 0.4462891 1.804961
v -1.715 0.3125001 0.3565625
v -1.614375 0.3125 0.686875
v -1.454687 0.3125 0.984375
v -1.2425 0.3125 1.2425
v -0.984375 0.3125 1.454687
v -0.686875 0.3125 1.614375
v -0.3565625 0.3125 1.715
v -1.625039 0.2021485 0.3378589
v -1.529692 0.2021484 0.6508448
v -1.378381 0.2021484 0.9327393
v -1.177324 0.2021484 1.177324
v -0.9327393 0.2021484 1.378381
v -0.6508448 0.2021484 1.529692
v -0.3378589 0.2021484 1.625039
v -1.546562 0.1140625 0.3215429
v -1.45582 0.1140625 0.6194141
v -1.311816 0.1140625 0.8876953
v -1.120469 0.1140625 1.120469
v -0.8876953 0.1140625 1.311816
v -0.6194141 0.1140625 1.45582
v -0.3215429 0.1140625 1.546562
v -1.491055 0.04707031 0.3100024
v -1.403569 0.04707031 0.5971826
v -1.264734 0.04707031 0.855835
v -1.080254 0.04707032 1.080254
v -0.855835 0.04707031 1.264734
v -0.5971826 0.04707031 1.403569
v -0.3100024 0.04707031 1.491055
v -1.47 -1.490116e-8 0.305625
v -1.38375 0 0.58875
v -1.246875 0 0.84375
v -1.065 1.490116e-8 1.065
v -0.84375 0 1.246875
v -0.58875 0 1.38375
v -0.305625 0 1.47

f 2 10 1
f 10 2 11
f 3 11 2
f 11 3 12
f 4 12 3
f 12 4 13
f 5 13 4
f 13 5 14
f 6 14 5
f 14 6 15
f 7 15 6
f 15 7 16
f 8 16 7
f 16 8 17
f 9 17 8
f 17 9 18
f 11 19 10
f 19 11 20
f 12 20 11
f 20 12 21
f 13 21 12
f 21 13 22
f 14 22 13
f 22 14 23
f 15 23 14
f 23 15 24
f 16 24 15
f 24 16 25
f 17 25 16
f 25 17 26
f 18 26 17
f 26 18 27
f 20 28 19
f 28 20 29
f 21 29 20
f 29 21 30
f 22 30 21
f 30 22 31
f 23 31 22
f 31 23 32
f 24 32 23
f 32 24 33
f 25 33 24
f 33 25 34
f 26 34 25
f 34 26 35
f 27 35 26
f 35 27 36
f 29 37 28
f 37 29 38
f 30 38 29
f 38 30 39
f 31 39 30
f 39 31 40
f 32 40 31
f 40 32 41
f 33 41 32
f 41 33 42
f 34 42 33
f 42 34 43
f 35 43 34
f 43 35 44
f 36 44 35
f 44 36 45
f 38 46 37
f 46 38 47
f 39 47 38
f 47 39 48
f 40 48 39
f 48 40 49
f 41 49 40
f 49 41 50
f 42 50 41
f 50 42 51
f 43 51 42
f 51 43 52
f 44 52 43
f 52 44 53
f 45 53 44
f 53 45 54
f 47 55 46
f 55 47 56
f 48 56 47
f 56 48 57
f 49 57 48
f 57 49 58
f 50 58 49
f 58 50 59
f 51 59 50
f 59 51 60
f 52 60 51
f 60 52 61
f 53 61 52
f 61 53 62
f 54 62 53
f 62 54 63
f 56 64 55
f 64 56 65
f 57 65 56
f 65 57 66
f 58 66 57
f 66 58 67
f 59 67 58
f 67 59 68
f 60 68 59
f 68 60 69
f 61 69 60
f 69 61 70
f 62 70 61
f 70 62 71
f 63 71 62
f 71 63 72
f 65 73 64
f 73 65 74
f 66 74 65
f 74 66 75
f 67 75 66
f 75 67 76
f 68 76 67
f 76 68 77
f 69 77 68
f 77 69 78
f 70 78 69
f 78 70 79
f 71 79 70
f 79 71 80
f 72 80 71
f 80 72 81
f 82 18 9
f 18 82 90
f 83 90 82
f 90 83 91
f 84 91 83
f 91 84 92
f 85 92 84
f 92 85 93
f 86 93 85
f 93 86 94
f 87 94 86
f 94 87 95
f 88 95 87
f 95 88 96
f 89 96 88
f 96 89 97
f 90 27 18
f 27 90 98
f 91 98 90
f 98 91 99
f 92 99 91
f 99 92 100
f 93 100 92
f 100 93 101
f 94 101 93
f 101 94 102
f 95 102 94
f 102 95 103
f 96 103 95
f 103 96 104
f 97 104 96
f 104 97 105
f 98 36 27
f 36 98 106
f 99 106 98
f 106 99 107
f 100 107 99
f 107 100 108
f 101 108 100
f 108 101 109
f 102 109 101
f 109 102 110
f 103 110 102
f 110 103 111
f 104 111 103
f 111 104 112
f 105 112 104
f 112 105 113
f 106 45 36
f 45 106 114
f 107 114 106
f 114 107 115
f 108 115 107
f 115 108 116
f 109 116 108
f 116 109 117
f 110 117 109
f 117 110 118
f 111 118 110
f 118 111 119
f 112 119 111
f 119 112 120
f 113 120 112
f 120 113 121
f 114 54 45
f 54 114 122
f 115 122 114
f 122 115 123
f 116 123 115
f 123 116 124
f 117 124 116
f 124 117 125
f 118 125 117
f 125 118 126
f 119 126 118
f 126 119 127
f 120 127 119
f 127 120 128
f 121 128 120
f 128 121 129
f 122 63 54
f 63 122 130
f 123 130 122
f 130 123 131
f 124 131 123
f 131 124 132
f 125 132 124
f 132 125 133
f 126 133 125
f 133 126 134
f 127 134 126
f 134 127 135
f 128 135 127
f 135 128 136
f 129 136 128
f 136 129 137
f 130 72 63
f 72 130 138
f 131 138 130
f 138 131 139
f 132 139 131
f 139 132 140
f 133 140 132
f 140 133 141
f 134 141 133
f 141 134 142
f 135 142 134
f 142 135 143
f 136 143 135
f 143 136 144
f 137 144 136
f 144 137 145
f 138 81 72
f 81 138 146
f 139 146 138
f 146 139 147
f 140 147 139
f 147 140 148
f 141 148 140
f 148 141 149
f 142 149 141
f 149 142 150
f 143 150 142
f 150 143 151
f 144 151 143
f 151 144 152
f 145 152 144
f 152 145 153
f 162 155 154
f 155 162 163
f 163 156 155
f 156 163 164
f 164 157 156
f 157 164 165
f 165 158 157
f 158 165 166
f 166 159 158
f 159 166 167
f 167 160 159
f 160 167 168
f 168 161 160
f 161 168 169
f 169 89 161
f 89 169 97
f 170 163 162
f 163 170 171
f 171 164 163
f 164 171 172
f 172 165 164
f 165 172 173
f 173 166 165
f 166 173 174
f 174 167 166
f 167 174 175
f 175 168 167
f 168 175 176
f 176 169 168
f 169 176 177
f 177 97 169
f 97 177 105
f 178 171 170
f 171 178 179
f 179 172 171
f 172 179 180
f 180 173 172
f 173 180 181
f 181 174 173
f 174 181 182
f 182 175 174
f 175 182 183
f 183 176 175
f 176 183 184
f 184 177 176
f 177 184 185
f 185 105 177
f 105 185 113
f 186 179 178
f 179 186 187
f 187 180 179
f 180 187 188
f 188 181 180
f 181 188 189
f 189 182 181
f 182 189 190
f 190 183 182
f 183 190 191
f 191 184 183
f 184 191 192
f 192 185 184
f 185 192 193
f 193 113 185
f 113 193 121
f 194 187 186
f 187 194 195
f 195 188 187
f 188 195 196
f 196 189 188
f 189 196 197
f 197 190 189
f 190 197 198
f 198 191 190
f 191 198 199
f 199 192 191
f 192 199 200
f 200 193 192
f 193 200 201
f 201 121 193
f 121 201 129
f 202 195 194
f 195 202 203
f 203 196 195
f 196 203 204
f 204 197 196
f 197 204 205
f 205 198 197
f 198 205 206
f 206 199 198
f 199 206 207
f 207 200 199
f 200 207 208
f 208 201 200
f 201 208 209
f 209 129 201
f 129 209 137
f 210 203 202
f 203 210 211
f 211 204 203
f 204 211 212
f 212 205 204
f 205 212 213
f 213 206 205
f 206 213 214
f 214 207 206
f 207 214 215
f 215 208 207
f 208 215 216
f 216 209 208
f 209 216 217
f 217 137 209
f 137 217 145
f 218 211 210
f 211 218 219
f 219 212 211
f 212 219 220
f 220 213 212
f 213 220 221
f 221 214 213
f 214 221 222
f 222 215 214
f 215 222 223
f 223 216 215
f 216 223 224
f 224 217 216
f 217 224 225
f 225 145 217
f 145 225 153
f 10 226 1
f 226 10 233
f 233 227 226
f 227 233 234
f 234 228 227
f 228 234 235
f 235 229 228
f 229 235 236
f 236 230 229
f 230 236 237
f 237 231 230
f 231 237 238
f 238 232 231
f 232 238 239
f 239 154 232
f 154 239 162
f 19 233 10
f 233 19 240
f 240 234 233
f 234 240 241
f 241 235 234
f 235 241 242
f 242 236 235
f 236 242 243
f 243 237 236
f 237 243 244
f 244 238 237
f 238 244 245
f 245 239 238
f 239 245 246
f 246 162 239
f 162 246 170
f 28 240 19
f 240 28 247
f 247 241 240
f 241 247 248
f 248 242 241
f 242 248 249
f 249 243 242
f 243 249 250
f 250 244 243
f 244 250 251
f 251 245 244
f 245 251 252
f 252 246 245
f 246 252 253
f 253 170 246
f 170 253 178
f 37 247 28
f 247 37 254
f 254 248 247
f 248 254 255
f 255 249 248
f 249 255 256
f 256 250 249
f 250 256 257
f 257 251 250
f 251 257 258
f 258 252 251
f 252 258 259
f 259 253 252
f 253 259 260
f 260 178 253
f 178 260 186
f 46 254 37
f 254 46 261
f 261 255 254
f 255 261 262
f 262 256 255
f 256 262 263
f 263 257 256
f 257 263 264
f 264 258 257
f 258 264 265
f 265 259 258
f 259 265 266
f 266 260 259
f 260 266 267
f 267 186 260
f 186 267 194
f 55 261 46
f 261 55 268
f 268 262 261
f 262 268 269
f 269 263 262
f 263 269 270
f 270 264 263
f 264 270 271
f 271 265 264
f 265 271 272
f 272 266 265
f 266 272 273
f 273 267 266
f 267 273 274
f 274 194 267
f 194 274 202
f 64 268 55
f 268 64 275
f 275 269 268
f 269 275 276
f 276 270 269
f 270 276 277
f 277 271 270
f 271 277 278
f 278 272 271
f 272 278 279
f 279 273 272
f 273 279 280
f 280 274 273
f 274 280 281
f 281 202 274
f 202 281 210
f 73 275 64
f 275 73 282
f 282 276 275
f 276 282 283
f 283 277 276
f 277 283 284
f 284 278 277
f 278 284 285
f 285 279 278
f 279 285 286
f 286 280 279
f 280 286 287
f 287 281 280
f 281 287 288
f 288 210 281
f 210 288 218
f 74 289 73
f 289 74 290
f 75 290 74
f 290 75 291
f 76 291 75
f 291 76 292
f 77 292 76
f 292 77 293
f 78 293 77
f 293 78 294
f 79 294 78
f 294 79 295
f 80 295 79
f 295 80 296
f 81 296 80
f 296 81 297
f 290 298 289
f 298 290 299
f 291 299 290
f 299 291 300
f 292 300 291
f 300 292 301
f 293 301 292
f 301 293 302
f 294 302 293
f 302 294 303
f 295 303 294
f 303 295 304
f 296 304 295
f 304 296 305
f 297 305 296
f 305 297 306
f 299 307 298
f 307 299 308
f 300 308 299
f 308 300 309
f 301 309 300
f 309 301 310
f 302 310 301
f 310 302 311
f 303 311 302
f 311 303 312
f 304 312 303
f 312 304 313
f 305 313 304
f 313 305 314
f 306 314 305
f 314 306 315
f 308 316 307
f 316 308 317
f 309 317 308
f 317 309 318
f 310 318 309
f 318 310 319
f 311 319 310
f 319 311 320
f 312 320 311
f 320 312 321
f 313 321 312
f 321 313 322
f 314 322 313
f 322 314 323
f 315 323 314
f 323 315 324
f 317 325 316
f 325 317 326
f 318 326 317
f 326 318 327
f 319 327 318
f 327 319 328
f 320 328 319
f 328 320 329
f 321 329 320
f 329 321 330
f 322 330 321
f 330 322 331
f 323 331 322
f 331 323 332
f 324 332 323
f 332 324 333
f 326 334 325
f 334 326 335
f 327 335 326
f 335 327 336
f 328 336 327
f 336 328 337
f 329 337 328
f 337 329 338
f 330 338 329
f 338 330 339
f 331 339 330
f 339 331 340
f 332 340 331
f 340 332 341
f 333 341 332
f 341 333 342
f 335 343 334
f 343 335 344
f 336 344 335
f 344 336 345
f 337 345 336
f 345 337 346
f 338 346 337
f 346 338 347
f 339 347 338
f 347 339 348
f 340 348 339
f 348 340 349
f 341 349 340
f 349 341 350
f 342 350 341
f 350 342 351
f 344 352 343
f 352 344 353
f 345 353 344
f 353 345 354
f 346 354 345
f 354 346 355
f 347 355 346
f 355 347 356
f 348 356 347
f 356 348 357
f 349 357 348
f 357 349 358
f 350 358 349
f 358 350 359
f 351 359 350
f 359 351 360
f 146 297 81
f 297 146 361
f 147 361 146
f 361 147 362
f 148 362 147
f 362 148 363
f 149 363 148
f 363 149 364
f 150 364 149
f 364 150 365
f 151 365 150
f 365 151 366
f 152 366 151
f 366 152 367
f 153 367 152
f 367 153 368
f 361 306 297
f 306 361 369
f 362 369 361
f 369 362 370
f 363 370 362
f 370 363 371
f 364 371 363
f 371 364 372
f 365 372 364
f 372 365 373
f 366 373 365
f 373 366 374
f 367 374 366
f 374 367 375
f 368 375 367
f 375 368 376
f 369 315 306
f 315 369 377
f 370 377 369
f 377 370 378
f 371 378 370
f 378 371 379
f 372 379 371
f 379 372 380
f 373 380 372
f 380 373 381
f 374 381 373
f 381 374 382
f 375 382 374
f 382 375 383
f 376 383 375
f 383 376 384
f 377 324 315
f 324 377 385
f 378 385 377
f 385 378 386
f 379 386 378
f 386 379 387
f 380 387 379
f 387 380 388
f 381 388 380
f 388 381 389
f 382 389 381
f 389 382 390
f 383 390 382
f 390 383 391
f 384 391 383
f 391 384 392
f 385 333 324
f 333 385 393
f 386 393 385
f 393 386 394
f 387 394 386
f 394 387 395
f 388 395 387
f 395 388 396
f 389 396 388
f 396 389 397
f 390 397 389
f 397 390 398
f 391 398 390
f 398 391 399
f 392 399 391
f 399 392 400
f 393 342 333
f 342 393 401
f 394 401 393
f 401 394 402
f 395 402 394
f 402 395 403
f 396 403 395
f 403 396 404
f 397 404 396
f 404 397 405
f 398 405 397
f 405 398 406
f 399 406 398
f 406 399 407
f 400 407 399
f 407 400 408
f 401 351 342
f 351 401 409
f 402 409 401
f 409 402 410
f 403 410 402
f 410 403 411
f 404 411 403
f 411 404 412
f 405 412 404
f 412 405 413
f 406 413 405
f 413 406 414
f 407 414 406
f 414 407 415
f 408 415 407
f 415 408 416
f 409 360 351
f 360 409 417
f 410 417 409
f 417 410 418
f 411 418 410
f 418 411 419
f 412 419 411
f 419 412 420
f 413 420 412
f 420 413 421
f 414 421 413
f 421 414 422
f 415 422 414
f 422 415 423
f 416 423 415
f 423 416 424
f 425 219 218
f 219 425 426
f 426 220 219
f 220 426 427
f 427 221 220
f 221 427 428
f 428 222 221
f 222 428 429
f 429 223 222
f 223 429 430
f 430 224 223
f 224 430 431
f 431 225 224
f 225 431 432
f 432 153 225
f 153 432 368
f 433 426 425
f 426 433 434
f 434 427 426
f 427 434 435
f 435 428 427
f 428 435 436
f 436 429 428
f 429 436 437
f 437 430 429
f 430 437 438
f 438 431 430
f 431 438 439
f 439 432 431
f 432 439 440
f 440 368 432
f 368 440 376
f 441 434 433
f 434 441 442
f 442 435 434
f 435 442 443
f 443 436 435
f 436 443 444
f 444 437 436
f 437 444 445
f 445 438 437
f 438 445 446
f 446 439 438
f 439 446 447
f 447 440 439
f 440 447 448
f 448 376 440
f 376 448 384
f 449 442 441
f 442 449 450
f 450 443 442
f 443 450 451
f 451 444 443
f 444 451 452
f 452 445 444
f 445 452 453
f 453 446 445
f 446 453 454
f 454 447 446
f 447 454 455
f 455 448 447
f 448 455 456
f 456 384 448
f 384 456 392
f 457 450 449
f 450 457 458
f 458 451 450
f 451 458 459
f 459 452 451
f 452 459 460
f 460 453 452
f 453 460 461
f 461 454 453
f 454 461 462
f 462 455 454
f 455 462 463
f 463 456 455
f 456 463 464
f 464 392 456
f 392 464 400
f 465 458 457
f 458 465 466
f 466 459 458
f 459 466 467
f 467 460 459
f 460 467 468
f 468 461 460
f 461 468 469
f 469 462 461
f 462 469 470
f 470 463 462
f 463 470 471
f 471 464 463
f 464 471 472
f 472 400 464
f 400 472 408
f 473 466 465
f 466 473 474
f 474 467 466
f 467 474 475
f 475 468 467
f 468 475 476
f 476 469 468
f 469 476 477
f 477 470 469
f 470 477 478
f 478 471 470
f 471 478 479
f 479 472 471
f 472 479 480
f 480 408 472
f 408 480 416
f 481 474 473
f 474 481 482
f 482 475 474
f 475 482 483
f 483 476 475
f 476 483 484
f 484 477 476
f 477 484 485
f 485 478 477
f 478 485 486
f 486 479 478
f 479 486 487
f 487 480 479
f 480 487 488
f 488 416 480
f 416 488 424
f 289 282 73
f 282 289 489
f 489 283 282
f 283 489 490
f 490 284 283
f 284 490 491
f 491 285 284
f 285 491 492
f 492 286 285
f 286 492 493
f 493 287 286
f 287 493 494
f 494 288 287
f 288 494 495
f 495 218 288
f 218 495 425
f 298 489 289
f 489 298 496
f 496 490 489
f 490 496 497
f 497 491 490
f 491 497 498
f 498 492 491
f 492 498 499
f 499 493 492
f 493 499 500
f 500 494 493
f 494 500 501
f 501 495 494
f 495 501 502
f 502 425 495
f 425 502 433
f 307 496 298
f 496 307 503
f 503 497 496
f 497 503 504
f 504 498 497
f 498 504 505
f 505 499 498
f 499 505 506
f 506 500 499
f 500 506 507
f 507 501 500
f 501 507 508
f 508 502 501
f 502 508 509
f 509 433 502
f 433 509 441
f 316 503 307
f 503 316 510
f 510 504 503
f 504 510 511
f 511 505 504
f 505 511 512
f 512 506 505
f 506 512 513
f 513 507 506
f 507 513 514
f 514 508 507
f 508 514 515
f 515 509 508
f 509 515 516
f 516 441 509
f 441 516 449
f 325 510 316
f 510 325 517
f 517 511 510
f 511 517 518
f 518 512 511
f 512 518 519
f 519 513 512
f 513 519 520
f 520 514 513
f 514 520 521
f 521 515 514
f 515 521 522
f 522 516 515
f 516 522 523
f 523 449 516
f 449 523 457
f 334 517 325
f 517 334 524
f 524 518 517
f 518 524 525
f 525 519 518
f 519 525 526
f 526 520 519
f 520 526 527
f 527 521 520
f 521 527 528
f 528 522 521
f 522 528 529
f 529 523 522
f 523 529 530
f 530 457 523
f 457 530 465
f 343 524 334
f 524 343 531
f 531 525 524
f 525 531 532
f 532 526 525
f 526 532 533
f 533 527 526
f 527 533 534
f 534 528 527
f 528 534 535
f 535 529 528
f 529 535 536
f 536 530 529
f 530 536 537
f 537 465 530
f 465 537 473
f 352 531 343
f 531 352 538
f 538 532 531
f 532 538 539
f 539 533 532
f 533 539 540
f 540 534 533
f 534 540 541
f 541 535 534
f 535 541 542
f 542 536 535
f 536 542 543
f 543 537 536
f 537 543 544
f 544 473 537
f 473 544 481
f 353 545 352
f 545 353 546
f 354 546 353
f 546 354 547
f 355 547 354
f 547 355 548
f 356 548 355
f 548 356 549
f 357 549 356
f 549 357 550
f 358 550 357
f 550 358 551
f 359 551 358
f 551 359 552
f 360 552 359
f 552 360 553
f 546 554 545
f 554 546 555
f 547 555 546
f 555 547 556
f 548 556 547
f 556 548 557
f 549 557 548
f 557 549 558
f 550 558 549
f 558 550 559
f 551 559 550
f 559 551 560
f 552 560 551
f 560 552 561
f 553 561 552
f 561 553 562
f 555 563 554
f 563 555 564
f 556 564 555
f 564 556 565
f 557 565 556
f 565 557 566
f 558 566 557
f 566 558 567
f 559 567 558
f 567 559 568
f 560 568 559
f 568 560 569
f 561 569 560
f 569 561 570
f 562 570 561
f 570 562 571
f 564 572 563
f 572 564 573
f 565 573 564
f 573 565 574
f 566 574 565
f 574 566 575
f 567 575 566
f 575 567 576
f 568 576 567
f 576 568 577
f 569 577 568
f 577 569 578
f 570 578 569
f 578 570 579
f 571 579 570
f 579 571 580
f 573 581 572
f 581 573 582
f 574 582 573
f 582 574 583
f 575 583 574
f 583 575 584
f 576 584 575
f 584 576 585
f 577 585 576
f 585 577 586
f 578 586 577
f 586 578 587
f 579 587 578
f 587 579 588
f 580 588 579
f 588 580 589
f 582 590 581
f 590 582 591
f 583 591 582
f 591 583 592
f 584 592 583
f 592 584 593
f 585 593 584
f 593 585 594
f 586 594 585
f 594 586 595
f 587 595 586
f 595 587 596
f 588 596 587
f 596 588 597
f 589 597 588
f 597 589 598
f 591 599 590
f 599 591 600
f 592 600 591
f 600 592 601
f 593 601 592
f 601 593 602
f 594 602 593
f 602 594 603
f 595 603 594
f 603 595 604
f 596 604 595
f 604 596 605
f 597 605 596
f 605 597 606
f 598 606 597
f 606 598 607
f 600 608 599
f 608 600 609
f 601 609 600
f 609 601 610
f 602 610 601
f 610 602 611
f 603 611 602
f 611 603 612
f 604 612 603
f 612 604 613
f 605 613 604
f 613 605 614
f 606 614 605
f 614 606 615
f 607 615 606
f 615 607 616
f 417 553 360
f 553 417 617
f 418 617 417
f 617 418 618
f 419 618 418
f 618 419 619
f 420 619 419
f 619 420 620
f 421 620 420
f 620 421 621
f 422 621 421
f 621 422 622
f 423 622 422
f 622 423 623
f 424 623 423
f 623 424 624
f 617 562 553
f 562 617 625
f 618 625 617
f 625 618 626
f 619 626 618
f 626 619 627
f 620 627 619
f 627 620 628
f 621 628 620
f 628 621 629
f 622 629 621
f 629 622 630
f 623 630 622
f 630 623 631
f 624 631 623
f 631 624 632
f 625 571 562
f 571 625 633
f 626 633 625
f 633 626 634
f 627 634 626
f 634 627 635
f 628 635 627
f 635 628 636
f 629 636 628
f 636 629 637
f 630 637 629
f 637 630 638
f 631 638 630
f 638 631 639
f 632 639 631
f 639 632 640
f 633 580 571
f 580 633 641
f 634 641 633
f 641 634 642
f 635 642 634
f 642 635 643
f 636 643 635
f 643 636 644
f 637 644 636
f 644 637 645
f 638 645 637
f 645 638 646
f 639 646 638
f 646 639 647
f 640 647 639
f 647 640 648
f 641 589 580
f 589 641 649
f 642 649 641
f 649 642 650
f 643 650 642
f 650 643 651
f 644 651 643
f 651 644 652
f 645 652 644
f 652 645 653
f 646 653 645
f 653 646 654
f 647 654 646
f 654 647 655
f 648 655 647
f 655 648 656
f 649 598 589
f 598 649 657
f 650 657 649
f 657 650 658
f 651 658 650
f 658 651 659
f 652 659 651
f 659 652 660
f 653 660 652
f 660 653 661
f 654 661 653
f 661 654 662
f 655 662 654
f 662 655 663
f 656 663 655
f 663 656 664
f 657 607 598
f 607 657 665
f 658 665 657
f 665 658 666
f 659 666 658
f 666 659 667
f 660 667 659
f 667 660 668
f 661 668 660
f 668 661 669
f 662 669 661
f 669 662 670
f 663 670 662
f 670 663 671
f 664 671 663
f 671 664 672
f 665 616 607
f 616 665 673
f 666 673 665
f 673 666 674
f 667 674 666
f 674 667 675
f 668 675 667
f 675 668 676
f 669 676 668
f 676 669 677
f 670 677 669
f 677 670 678
f 671 678 670
f 678 671 679
f 672 679 671
f 679 672 680
f 681 482 481
f 482 681 682
f 682 483 482
f 483 682 683
f 683 484 483
f 484 683 684
f 684 485 484
f 485 684 685
f 685 486 485
f 486 685 686
f 686 487 486
f 487 686 687
f 687 488 487
f 488 687 688
f 688 424 488
f 424 688 624
f 689 682 681
f 682 689 690
f 690 683 682
f 683 690 691
f 691 684 683
f 684 691 692
f 692 685 684
f 685 692 693
f 693 686 685
f 686 693 694
f 694 687 686
f 687 694 695
f 695 688 687
f 688 695 696
f 696 624 688
f 624 696 632
f 697 690 689
f 690 697 698
f 698 691 690
f 691 698 699
f 699 692 691
f 692 699 700
f 700 693 692
f 693 700 701
f 701 694 693
f 694 701 702
f 702 695 694
f 695 702 703
f 703 696 695
f 696 703 704
f 704 632 696
f 632 704 640
f 705 698 697
f 698 705 706
f 706 699 698
f 699 706 707
f 707 700 699
f 700 707 708
f 708 701 700
f 701 708 709
f 709 702 701
f 702 709 710
f 710 703 702
f 703 710 711
f 711 704 703
f 704 711 712
f 712 640 704
f 640 712 648
f 713 706 705
f 706 713 714
f 714 707 706
f 707 714 715
f 715 708 707
f 708 715 716
f 716 709 708
f 709 716 717
f 717 710 709
f 710 717 718
f 718 711 710
f 711 718 719
f 719 712 711
f 712 719 720
f 720 648 712
f 648 720 656
f 721 714 713
f 714 721 722
f 722 715 714
f 715 722 723
f 723 716 715
f 716 723 724
f 724 717 716
f 717 724 725
f 725 718 717
f 718 725 726
f 726 719 718
f 719 726 727
f 727 720 719
f 720 727 728
f 728 656 720
f 656 728 664
f 729 722 721
f 722 729 730
f 730 723 722
f 723 730 731
f 731 724 723
f 724 731 732
f 732 725 724
f 725 732 733
f 733 726 725
f 726 733 734
f 734 727 726
f 727 734 735
f 735 728 727
f 728 735 736
f 736 664 728
f 664 736 672
f 737 730 729
f 730 737 738
f 738 731 730
f 731 738 739
f 739 732 731
f 732 739 740
f 740 733 732
f 733 740 741
f 741 734 733
f 734 741 742
f 742 735 734
f 735 742 743
f 743 736 735
f 736 743 744
f 744 672 736
f 672 744 680
f 545 538 352
f 538 545 745
f 745 539 538
f 539 745 746
f 746 540 539
f 540 746 747
f 747 541 540
f 541 747 748
f 748 542 541
f 542 748 749
f 749 543 542
f 543 749 750
f 750 544 543
f 544 750 751
f 751 481 544
f 481 751 681
f 554 745 545
f 745 554 752
f 752 746 745
f 746 752 753
f 753 747 746
f 747 753 754
f 754 748 747
f 748 754 755
f 755 749 748
f 749 755 756
f 756 750 749
f 750 756 757
f 757 751 750
f 751 757 758
f 758 681 751
f 681 758 689
f 563 752 554
f 752 563 759
f 759 753 752
f 753 759 760
f 760 754 753
f 754 760 761
f 761 755 754
f 755 761 762
f 762 756 755
f 756 762 763
f 763 757 756
f 757 763 764
f 764 758 757
f 758 764 765
f 765 689 758
f 689 765 697
f 572 759 563
f 759 572 766
f 766 760 759
f 760 766 767
f 767 761 760
f 761 767 768
f 768 762 761
f 762 768 769
f 769 763 762
f 763 769 770
f 770 764 763
f 764 770 771
f 771 765 764
f 765 771 772
f 772 697 765
f 697 772 705
f 581 766 572
f 766 581 773
f 773 767 766
f 767 773 774
f 774 768 767
f 768 774 775
f 775 769 768
f 769 775 776
f 776 770 769
f 770 776 777
f 777 771 770
f 771 777 778
f 778 772 771
f 772 778 779
f 779 705 772
f 705 779 713
f 590 773 581
f 773 590 780
f 780 774 773
f 774 780 781
f 781 775 774
f 775 781 782
f 782 776 775
f 776 782 783
f 783 777 776
f 777 783 784
f 784 778 777
f 778 784 785
f 785 779 778
f 779 785 786
f 786 713 779
f 713 786 721
f 599 780 590
f 780 599 787
f 787 781 780
f 781 787 788
f 788 782 781
f 782 788 789
f 789 783 782
f 783 789 790
f 790 784 783
f 784 790 791
f 791 785 784
f 785 791 792
f 792 786 785
f 786 792 793
f 793 721 786
f 721 793 729
f 608 787 599
f 787 608 794
f 794 788 787
f 788 794 795
f 795 789 788
f 789 795 796
f 796 790 789
f 790 796 797
f 797 791 790
f 791 797 798
f 798 792 791
f 792 798 799
f 799 793 792
f 793 799 800
f 800 729 793
f 729 800 737
